<?xml version="1.0" encoding="UTF-8"?><svg id="_イヤー_2" xmlns="http://www.w3.org/2000/svg" viewBox="0 0 812.67 407.72"><defs><style>.cls-1{stroke:#c51a1a;}.cls-1,.cls-2{stroke-width:6px;}.cls-1,.cls-2,.cls-3,.cls-4{fill:none;stroke-miterlimit:10;}.cls-2{stroke:#333;}.cls-5{fill:#a23838;}.cls-6{fill:#b4b4b4;}.cls-7{fill:#333232;}.cls-8{fill:#b1b3b6;}.cls-9{fill:silver;}.cls-10{fill:#cbb21f;}.cls-11{fill:#c5c5c5;}.cls-12{fill:#242526;}.cls-13{fill:#1e3363;}.cls-14{fill:#09101c;}.cls-15{fill:#5a5c60;}.cls-16{fill:#838383;}.cls-3{stroke:#b4b4b4;}.cls-4{stroke:silver;stroke-width:1px;}</style></defs><g id="_イヤー_1-2"><g><g><rect class="cls-5" x="349.5" y="92.74" width="157.22" height="217.2" rx="6.72" ry="6.72"/><rect class="cls-7" x="428.11" y="159.18" width="66.2" height="38.88"/><circle class="cls-9" cx="471.26" cy="265.99" r="20.39"/><g><circle class="cls-10" cx="477.15" cy="114.39" r="9.54"/><circle class="cls-7" cx="477.15" cy="114.39" r="5.89"/></g><g><circle class="cls-10" cx="452.91" cy="114.39" r="9.54"/><circle class="cls-7" cx="452.91" cy="114.39" r="5.89"/></g><g><circle class="cls-10" cx="400.53" cy="114.39" r="9.54"/><circle class="cls-7" cx="400.53" cy="114.39" r="5.89"/></g><g><circle class="cls-10" cx="376.3" cy="114.39" r="9.54"/><circle class="cls-7" cx="376.3" cy="114.39" r="5.89"/></g><g><circle class="cls-10" cx="368.72" cy="258.7" r="9.54"/><circle class="cls-7" cx="368.72" cy="258.7" r="5.89"/></g><g><circle class="cls-10" cx="368.72" cy="234.46" r="9.54"/><circle class="cls-7" cx="368.72" cy="234.46" r="5.89"/></g><g><circle class="cls-10" cx="368.72" cy="182.08" r="9.54"/><circle class="cls-7" cx="368.72" cy="182.08" r="5.89"/></g><g><circle class="cls-10" cx="368.72" cy="157.85" r="9.54"/><circle class="cls-7" cx="368.72" cy="157.85" r="5.89"/></g><line class="cls-3" x1="433.75" y1="145.74" x2="433.75" y2="159.18"/><line class="cls-3" x1="438.77" y1="145.74" x2="438.77" y2="159.18"/><line class="cls-3" x1="443.78" y1="145.74" x2="443.78" y2="159.18"/><line class="cls-3" x1="448.8" y1="145.74" x2="448.8" y2="159.18"/><line class="cls-3" x1="453.81" y1="145.74" x2="453.81" y2="159.18"/><line class="cls-3" x1="458.83" y1="145.74" x2="458.83" y2="159.18"/><line class="cls-3" x1="463.84" y1="145.74" x2="463.84" y2="159.18"/><line class="cls-3" x1="468.86" y1="145.74" x2="468.86" y2="159.18"/><line class="cls-3" x1="473.87" y1="145.74" x2="473.87" y2="159.18"/><line class="cls-3" x1="478.89" y1="145.74" x2="478.89" y2="159.18"/><line class="cls-3" x1="483.9" y1="145.74" x2="483.9" y2="159.18"/><line class="cls-3" x1="488.92" y1="145.74" x2="488.92" y2="159.18"/><line class="cls-3" x1="433.75" y1="198.06" x2="433.75" y2="211.49"/><line class="cls-3" x1="438.77" y1="198.06" x2="438.77" y2="211.49"/><line class="cls-3" x1="443.78" y1="198.06" x2="443.78" y2="211.49"/><line class="cls-3" x1="448.8" y1="198.06" x2="448.8" y2="211.49"/><line class="cls-3" x1="453.81" y1="198.06" x2="453.81" y2="211.49"/><line class="cls-3" x1="458.83" y1="198.06" x2="458.83" y2="211.49"/><line class="cls-3" x1="463.84" y1="198.06" x2="463.84" y2="211.49"/><line class="cls-3" x1="468.86" y1="198.06" x2="468.86" y2="211.49"/><line class="cls-3" x1="473.87" y1="198.06" x2="473.87" y2="211.49"/><line class="cls-3" x1="478.89" y1="198.06" x2="478.89" y2="211.49"/><line class="cls-3" x1="483.9" y1="198.06" x2="483.9" y2="211.49"/><line class="cls-3" x1="488.92" y1="198.06" x2="488.92" y2="211.49"/><rect class="cls-6" x="417.99" y="224.43" width="8.78" height="7.07"/><rect class="cls-6" x="417.99" y="240.46" width="8.78" height="7.07"/><rect class="cls-6" x="394.42" y="224.43" width="8.78" height="7.07"/><rect class="cls-6" x="394.42" y="240.46" width="8.78" height="7.07"/><rect class="cls-7" x="393.53" y="226.54" width="33.1" height="19.44" transform="translate(646.34 -173.82) rotate(90)"/></g><path class="cls-16" d="M804.76,262.84h-50.13v-36.07c0-6.66-5.4-12.06-12.06-12.06h-173.82c-6.66,0-12.06,5.4-12.06,12.06v99.6c0,6.66,5.4,12.06,12.06,12.06h173.82c6.66,0,12.06-5.4,12.06-12.06v-36.07h50.13c2.1,0,3.81-1.71,3.81-3.81v-19.83c0-2.1-1.71-3.81-3.81-3.81Z"/><g><rect class="cls-13" y="25.22" width="287.14" height="382.5"/><g><rect class="cls-14" x="251.11" y="61.25" width="27.02" height="287.14"/><rect class="cls-14" x="7.42" y="61.25" width="27.02" height="287.14"/><rect class="cls-15" x="61.98" y="216.47" width="163.17" height="145.69"/><rect class="cls-15" x="195.09" y="31.65" width="44.82" height="33.77"/><ellipse class="cls-8" cx="217.5" cy="48.54" rx="16.56" ry="11.69"/><rect class="cls-15" x="46.06" y="31.65" width="44.82" height="33.77"/><ellipse class="cls-8" cx="68.47" cy="48.54" rx="16.56" ry="11.69"/><path class="cls-8" d="M104.78,0V50.45h77.58V0H104.78Zm15.19,18.43c-2.05,1.75-1.69,10.98-.82,12.76,1.14,2.35-4.74-4.86-4.74-10.85s2.12-10.85,4.74-10.85,5.59,4.87,.82,8.94Zm47.2,12.76c.87-1.79,1.23-11.01-.82-12.76-4.77-4.08-1.8-8.94,.82-8.94s4.74,4.86,4.74,10.85-5.88,13.21-4.74,10.85Z"/><rect class="cls-12" x="43.2" y="109.11" width="79.3" height="29.08"/><rect class="cls-12" x="159.72" y="84.15" width="27.64" height="17.11"/><rect class="cls-12" x="197.94" y="85.44" width="24.3" height="14.54" transform="translate(302.8 -117.38) rotate(90)"/><rect class="cls-12" x="220.49" y="85.44" width="24.3" height="14.54" transform="translate(325.35 -139.93) rotate(90)"/><line class="cls-4" x1="45.06" y1="109.11" x2="45.06" y2="93.71"/><line class="cls-4" x1="50.82" y1="109.11" x2="50.82" y2="93.71"/><line class="cls-4" x1="56.58" y1="109.11" x2="56.58" y2="93.71"/><line class="cls-4" x1="62.34" y1="109.11" x2="62.34" y2="93.71"/><line class="cls-4" x1="68.1" y1="109.11" x2="68.1" y2="93.71"/><line class="cls-4" x1="73.86" y1="109.11" x2="73.86" y2="93.71"/><line class="cls-4" x1="79.62" y1="109.11" x2="79.62" y2="93.71"/><line class="cls-4" x1="85.38" y1="109.11" x2="85.38" y2="93.71"/><line class="cls-4" x1="91.14" y1="109.11" x2="91.14" y2="93.71"/><line class="cls-4" x1="96.9" y1="109.11" x2="96.9" y2="93.71"/><line class="cls-4" x1="102.66" y1="109.11" x2="102.66" y2="93.71"/><line class="cls-4" x1="108.42" y1="109.11" x2="108.42" y2="93.71"/><line class="cls-4" x1="114.18" y1="109.11" x2="114.18" y2="93.71"/><line class="cls-4" x1="119.94" y1="109.11" x2="119.94" y2="93.71"/><line class="cls-4" x1="45.42" y1="153.59" x2="45.42" y2="138.19"/><line class="cls-4" x1="51.17" y1="153.59" x2="51.17" y2="138.19"/><line class="cls-4" x1="56.93" y1="153.59" x2="56.93" y2="138.19"/><line class="cls-4" x1="62.69" y1="153.59" x2="62.69" y2="138.19"/><line class="cls-4" x1="68.45" y1="153.59" x2="68.45" y2="138.19"/><line class="cls-4" x1="74.21" y1="153.59" x2="74.21" y2="138.19"/><line class="cls-4" x1="79.97" y1="153.59" x2="79.97" y2="138.19"/><line class="cls-4" x1="85.73" y1="153.59" x2="85.73" y2="138.19"/><line class="cls-4" x1="91.49" y1="153.59" x2="91.49" y2="138.19"/><line class="cls-4" x1="97.25" y1="153.59" x2="97.25" y2="138.19"/><line class="cls-4" x1="103.01" y1="153.59" x2="103.01" y2="138.19"/><line class="cls-4" x1="108.77" y1="153.59" x2="108.77" y2="138.19"/><line class="cls-4" x1="114.53" y1="153.59" x2="114.53" y2="138.19"/><line class="cls-4" x1="120.29" y1="153.59" x2="120.29" y2="138.19"/><rect class="cls-11" x="179.73" y="79.07" width="5.09" height="5.09"/><rect class="cls-11" x="207.55" y="75.47" width="5.09" height="5.09"/><rect class="cls-11" x="207.55" y="104.86" width="5.09" height="5.09"/><rect class="cls-11" x="230.1" y="75.47" width="5.09" height="5.09"/><rect class="cls-11" x="230.1" y="104.86" width="5.09" height="5.09"/><rect class="cls-11" x="163.49" y="79.07" width="5.09" height="5.09"/><rect class="cls-11" x="171" y="101.26" width="5.09" height="5.09"/></g></g><path class="cls-1" d="M368.72,157.85s-68.94-97.21-104.1-39.63"/><path class="cls-2" d="M368.72,182.08s-68.94-85.14-104.1-27.57"/><path class="cls-1" d="M368.72,234.46s-68.94-67.61-104.1-10.03"/><path class="cls-2" d="M368.72,258.7s-68.94-57.57-104.1,0"/><path class="cls-16" d="M808.86,79.01h-50.13V42.94c0-6.66-5.4-12.06-12.06-12.06h-173.82c-6.66,0-12.06,5.4-12.06,12.06v99.6c0,6.66,5.4,12.06,12.06,12.06h173.82c6.66,0,12.06-5.4,12.06-12.06v-36.07h50.13c2.1,0,3.81-1.71,3.81-3.81v-19.83c0-2.1-1.71-3.81-3.81-3.81Z"/><path class="cls-1" d="M376.3,114.39s7.01-154.97,191.33-32.76"/><path class="cls-2" d="M400.53,114.39s-17.23-136.62,167.09-14.4"/><path class="cls-1" d="M452.91,114.39s9.06-40.05,53.81-36.37c44.74,3.68-6.78,181.42,58.74,182.48"/><path class="cls-2" d="M477.15,114.39s19.06-38.35,35.51-14.4c16.45,23.95-18.44,180.53,52.79,179.45"/></g></g></svg>