<?xml version="1.0" encoding="UTF-8"?><svg id="_イヤー_2" xmlns="http://www.w3.org/2000/svg" viewBox="0 0 793.77 480.97"><defs><style>.cls-1{font-family:KozGoPr6N-Regular-83pv-RKSJ-H, 'Kozuka Gothic Pr6N';font-size:24.4px;}.cls-2{fill:#b4b4b4;}.cls-3{fill:#b1b3b6;}.cls-4{fill:#c5c5c5;}.cls-5{fill:#242526;}.cls-6{fill:#1e3363;}.cls-7{fill:#09101c;}.cls-8{fill:#262626;}.cls-9{fill:#3a3a3a;}.cls-10{fill:#5a5c60;}.cls-11{stroke:#262626;stroke-linecap:round;stroke-width:5.79px;}.cls-11,.cls-12{fill:none;stroke-miterlimit:10;}.cls-12{stroke:silver;stroke-width:1px;}</style></defs><g id="_イヤー_1-2"><g><rect class="cls-6" y="59.84" width="287.14" height="382.5"/><g><rect class="cls-7" x="251.11" y="95.86" width="27.02" height="287.14"/><rect class="cls-7" x="7.42" y="95.86" width="27.02" height="287.14"/><rect class="cls-10" x="61.98" y="251.09" width="163.17" height="145.69"/><rect class="cls-10" x="195.09" y="66.26" width="44.82" height="33.77"/><ellipse class="cls-3" cx="217.5" cy="83.15" rx="16.56" ry="11.69"/><rect class="cls-10" x="46.06" y="66.26" width="44.82" height="33.77"/><ellipse class="cls-3" cx="68.47" cy="83.15" rx="16.56" ry="11.69"/><path class="cls-3" d="M104.78,34.62v50.45h77.58V34.62H104.78Zm15.19,18.43c-2.05,1.75-1.69,10.98-.82,12.76,1.14,2.35-4.74-4.86-4.74-10.85s2.12-10.85,4.74-10.85,5.59,4.87,.82,8.94Zm47.2,12.76c.87-1.79,1.23-11.01-.82-12.76-4.77-4.08-1.8-8.94,.82-8.94s4.74,4.86,4.74,10.85-5.88,13.21-4.74,10.85Z"/><rect class="cls-5" x="43.2" y="143.73" width="79.3" height="29.08"/><rect class="cls-5" x="159.72" y="118.77" width="27.64" height="17.11"/><rect class="cls-5" x="197.94" y="120.05" width="24.3" height="14.54" transform="translate(337.41 -82.77) rotate(90)"/><rect class="cls-5" x="220.49" y="120.05" width="24.3" height="14.54" transform="translate(359.96 -105.32) rotate(90)"/><line class="cls-12" x1="45.06" y1="143.73" x2="45.06" y2="128.33"/><line class="cls-12" x1="50.82" y1="143.73" x2="50.82" y2="128.33"/><line class="cls-12" x1="56.58" y1="143.73" x2="56.58" y2="128.33"/><line class="cls-12" x1="62.34" y1="143.73" x2="62.34" y2="128.33"/><line class="cls-12" x1="68.1" y1="143.73" x2="68.1" y2="128.33"/><line class="cls-12" x1="73.86" y1="143.73" x2="73.86" y2="128.33"/><line class="cls-12" x1="79.62" y1="143.73" x2="79.62" y2="128.33"/><line class="cls-12" x1="85.38" y1="143.73" x2="85.38" y2="128.33"/><line class="cls-12" x1="91.14" y1="143.73" x2="91.14" y2="128.33"/><line class="cls-12" x1="96.9" y1="143.73" x2="96.9" y2="128.33"/><line class="cls-12" x1="102.66" y1="143.73" x2="102.66" y2="128.33"/><line class="cls-12" x1="108.42" y1="143.73" x2="108.42" y2="128.33"/><line class="cls-12" x1="114.18" y1="143.73" x2="114.18" y2="128.33"/><line class="cls-12" x1="119.94" y1="143.73" x2="119.94" y2="128.33"/><line class="cls-12" x1="45.42" y1="188.2" x2="45.42" y2="172.8"/><line class="cls-12" x1="51.17" y1="188.2" x2="51.17" y2="172.8"/><line class="cls-12" x1="56.93" y1="188.2" x2="56.93" y2="172.8"/><line class="cls-12" x1="62.69" y1="188.2" x2="62.69" y2="172.8"/><line class="cls-12" x1="68.45" y1="188.2" x2="68.45" y2="172.8"/><line class="cls-12" x1="74.21" y1="188.2" x2="74.21" y2="172.8"/><line class="cls-12" x1="79.97" y1="188.2" x2="79.97" y2="172.8"/><line class="cls-12" x1="85.73" y1="188.2" x2="85.73" y2="172.8"/><line class="cls-12" x1="91.49" y1="188.2" x2="91.49" y2="172.8"/><line class="cls-12" x1="97.25" y1="188.2" x2="97.25" y2="172.8"/><line class="cls-12" x1="103.01" y1="188.2" x2="103.01" y2="172.8"/><line class="cls-12" x1="108.77" y1="188.2" x2="108.77" y2="172.8"/><line class="cls-12" x1="114.53" y1="188.2" x2="114.53" y2="172.8"/><line class="cls-12" x1="120.29" y1="188.2" x2="120.29" y2="172.8"/><rect class="cls-4" x="179.73" y="113.68" width="5.09" height="5.09"/><rect class="cls-4" x="207.55" y="110.09" width="5.09" height="5.09"/><rect class="cls-4" x="207.55" y="139.47" width="5.09" height="5.09"/><rect class="cls-4" x="230.1" y="110.09" width="5.09" height="5.09"/><rect class="cls-4" x="230.1" y="139.47" width="5.09" height="5.09"/><rect class="cls-4" x="163.49" y="113.68" width="5.09" height="5.09"/><rect class="cls-4" x="171" y="135.88" width="5.09" height="5.09"/></g></g><g><g><rect class="cls-8" x="535.84" y="0" width="257.93" height="480.97" rx="16.32" ry="16.32"/><rect class="cls-2" x="550.94" y="12.44" width="227.72" height="424.62" rx="14.41" ry="14.41"/><polygon class="cls-8" points="696.19 22.45 633.41 22.45 621.53 12.44 708.07 12.44 696.19 22.45"/><circle class="cls-9" cx="664.8" cy="459.68" r="17.88"/></g><g><path class="cls-11" d="M600.54,187.45c36.59-36.59,95.92-36.59,132.52,0"/><path class="cls-11" d="M614.89,201.8c28.67-28.67,75.15-28.67,103.82,0"/><path class="cls-11" d="M630.44,217.34c20.08-20.08,52.65-20.08,72.73,0"/><circle class="cls-8" cx="666.8" cy="230" r="8.48"/></g><text class="cls-1" transform="translate(600.54 284.18)"><tspan x="0" y="0">Connecting...</tspan></text></g></g></svg>